<svg xmlns="http://www.w3.org/2000/svg" version="1.1" xmlns:xlink="http://www.w3.org/1999/xlink" width="32" height="32"><svg width="32" height="32" viewBox="0 0 32 32" fill="none" xmlns="http://www.w3.org/2000/svg">
  <!-- Background circle -->
  <circle cx="16" cy="16" r="15" fill="#3b82f6"></circle>
  
  <!-- Spinning mill gear/cog representation -->
  <g fill="white">
    <!-- Central circle -->
    <circle cx="16" cy="16" r="4" fill="white"></circle>
    
    <!-- Gear teeth -->
    <rect x="14.5" y="6" width="3" height="4" rx="1"></rect>
    <rect x="14.5" y="22" width="3" height="4" rx="1"></rect>
    <rect x="6" y="14.5" width="4" height="3" rx="1"></rect>
    <rect x="22" y="14.5" width="4" height="3" rx="1"></rect>
    
    <!-- Diagonal gear teeth -->
    <rect x="21.5" y="8.5" width="3" height="3" rx="1" transform="rotate(45 23 10)"></rect>
    <rect x="7.5" y="20.5" width="3" height="3" rx="1" transform="rotate(45 9 22)"></rect>
    <rect x="7.5" y="8.5" width="3" height="3" rx="1" transform="rotate(-45 9 10)"></rect>
    <rect x="21.5" y="20.5" width="3" height="3" rx="1" transform="rotate(-45 23 22)"></rect>
    
    <!-- Small dots for detail -->
    <circle cx="16" cy="16" r="1.5" fill="#3b82f6"></circle>
  </g>
</svg><style>@media (prefers-color-scheme: light) { :root { filter: none; } }
@media (prefers-color-scheme: dark) { :root { filter: none; } }
</style></svg>